<svg width="375" height="306" viewBox="0 0 375 306" fill="none" xmlns="http://www.w3.org/2000/svg">
<path opacity="0.18" d="M372.445 221.268C371.724 233.916 370.259 246.761 365.165 258.349C355.862 279.545 335.102 294.194 312.867 300.643C307.214 302.265 301.448 303.464 295.617 304.229C278.585 306.536 261.062 305.53 243.943 303.42C229.251 301.605 214.646 298.982 199.976 296.97C191.711 295.877 183.414 294.893 175.095 294.401C159.168 293.472 143.207 294.172 127.291 295.32C126.547 295.32 125.793 295.418 125.104 295.484C110.642 296.577 95.9497 297.965 81.6401 296.216C78.329 295.827 75.0438 295.243 71.8016 294.467C70.1326 294.074 68.482 293.614 66.8495 293.09C50.3973 287.875 35.9675 276.933 23.2758 265.64C10.2124 254.02 4.09064 236.004 3.50032 218.885C2.8007 198.727 0.0677714 165.069 68.4565 109.864C82.8207 98.2104 81.6073 75.374 88.4396 58.1676C98.2781 33.4947 118.436 12.4512 143.765 4.43828C154.697 0.962006 166.317 -0.0765046 177.806 0.0656074C192.413 0.186263 206.95 2.08784 221.096 5.72822C247.813 12.5605 279.515 26.4329 299.662 47.7387C303.146 51.3939 306.292 55.3564 309.063 59.5778C326.226 85.9013 324.291 120.15 341.957 146.31C349.609 157.602 360.54 166.588 366.618 178.799C373.101 191.698 373.276 206.817 372.445 221.268Z" fill="#FCE61E"/>
<path d="M127.291 295.32C126.547 295.32 125.793 295.418 125.104 295.484C110.642 296.577 95.9497 297.965 81.6401 296.216C78.329 295.827 75.0438 295.243 71.8015 294.467C70.1326 294.074 68.482 293.614 66.8495 293.09C65.3846 246.455 105.427 184.691 110.303 177.279L125.312 177.913L172.745 179.914C129.86 220.623 125.837 269.587 127.291 295.32Z" fill="#FCE61E"/>
<path d="M127.291 295.32C126.547 295.32 125.793 295.418 125.104 295.484C110.642 296.577 95.9497 297.965 81.6401 296.216C78.329 295.827 75.0438 295.243 71.8015 294.467C70.1326 294.074 68.482 293.614 66.8495 293.09C65.3846 246.455 105.427 184.691 110.303 177.279L125.312 177.913L172.745 179.914C129.86 220.623 125.837 269.587 127.291 295.32Z" fill="url(#paint0_linear)"/>
<path d="M126.701 176.558C126.22 177.006 125.749 177.454 125.29 177.913C81.3012 220.766 79.5084 272.199 81.5854 296.194C78.2743 295.805 74.9891 295.221 71.7469 294.445C70.078 294.052 68.4273 293.593 66.7948 293.068C65.3846 246.455 105.427 184.691 110.303 177.279L110.795 176.558H126.701Z" fill="#FCE61E"/>
<path d="M236.094 77.5604C234.301 80.8399 234.859 84.7972 234.072 88.4156C233.838 89.4395 233.538 90.4473 233.175 91.4327C231.798 95.39 230.06 99.4566 226.747 102.026C225.728 102.615 224.886 103.469 224.31 104.496C224.143 105.029 224.106 105.594 224.204 106.144C224.301 106.693 224.528 107.212 224.867 107.655C225.563 108.509 226.389 109.247 227.316 109.842C227.13 111.733 227.185 113.974 226.988 115.854C226.562 120.019 226.288 124.709 229.043 127.879C231.229 130.317 234.596 131.158 237.788 131.53C240.98 131.902 244.347 132.099 247.212 133.716C253.246 137.073 254.864 145.599 260.865 149.021C262.653 149.966 264.612 150.542 266.626 150.715C270.878 151.318 275.21 150.52 278.968 148.441C282.63 146.255 294.611 142.691 291.365 139.926C287.823 136.919 282.39 128.393 279.854 123.856C277.03 118.813 275.11 113.316 274.18 107.612C273.415 102.856 273.338 98.0245 272.628 93.2692C271.917 88.514 270.441 83.704 267.391 80.0091C262.789 74.5432 255.268 72.3569 248.119 71.9524C246.123 71.7515 244.107 71.8994 242.161 72.3897C241.186 72.6362 240.273 73.0808 239.477 73.6958C238.681 74.3108 238.021 75.083 237.537 75.9644" fill="#F9BA9F"/>
<path d="M306.538 99.9047C306.254 102.432 305.556 104.896 304.472 107.196C303.848 108.747 302.957 110.175 301.837 111.416C299.651 113.362 299.585 116.652 298.241 119.221C297.322 120.862 296.048 122.278 294.513 123.364C291.44 125.632 287.856 127.109 284.077 127.664C280.299 128.218 276.441 127.834 272.846 126.545L271.753 126.13C268.542 124.631 265.497 122.799 262.669 120.664C262.491 120.547 262.348 120.385 262.254 120.194C262.068 119.735 262.461 119.276 262.811 118.915C263.966 117.729 264.875 116.327 265.487 114.788C266.098 113.25 266.4 111.606 266.375 109.951C266.431 108.536 265.994 107.145 265.139 106.016C264.696 105.469 264.081 105.089 263.394 104.938C262.707 104.787 261.988 104.874 261.357 105.185C260.264 105.808 259.171 107.295 258.231 106.497C257.954 106.195 257.785 105.811 257.75 105.403C257.436 102.97 256.792 100.59 255.837 98.3306C254.551 96.148 252.969 94.154 251.136 92.4056C246.876 87.7104 243.452 82.3195 241.013 76.4672C240.867 75.9403 240.542 75.4805 240.095 75.1663C239.676 74.9823 239.213 74.9217 238.761 74.9914C236.768 75.1081 234.769 75.0716 232.782 74.8821C231.768 74.8816 230.783 74.543 229.983 73.9201C228.628 72.6192 229.24 70.3017 230.333 68.7822C232.814 65.295 236.958 63.4694 240.904 61.8187C239.887 61.1519 238.28 59.687 237.264 59.0202C236.912 58.8366 236.629 58.5455 236.455 58.1894C236.236 57.5116 236.892 56.8557 237.548 56.5278C238.691 55.9484 239.986 55.7383 241.254 55.9265C241.068 52.9094 237.832 50.1109 239.067 47.3561C239.909 45.5414 242.347 45.0714 244.293 45.5524C246.239 46.0333 247.922 47.2249 249.813 47.8589C250.24 46.5362 249.059 45.1588 249.278 43.7814C249.395 43.288 249.649 42.8376 250.011 42.4819C250.372 42.1261 250.827 41.8794 251.322 41.77C252.33 41.5714 253.372 41.6316 254.35 41.9449C256.64 42.558 258.762 43.6789 260.559 45.2244C261.61 46.3345 262.796 47.3078 264.09 48.1213C266.648 49.444 269.72 48.7116 272.595 48.7116C275.984 48.848 279.319 49.6077 282.433 50.9526C284.5 51.7283 286.522 52.6188 288.49 53.6199C291.114 54.9259 293.564 56.5566 295.781 58.4736C301.378 63.3929 304.876 70.4001 306.418 77.6806C307.791 85.0214 307.832 92.5495 306.538 99.9047Z" fill="#FF681C"/>
<path d="M51.9496 64.9233L57.5247 59.0858L190.028 64.9233L220.833 174.065L215.258 179.903H76.9066L51.9496 64.9233Z" fill="#FCE61E"/>
<path d="M51.9496 64.9233L57.5247 59.0858L190.028 64.9233L220.833 174.065L215.258 179.903H76.9066L51.9496 64.9233Z" fill="url(#paint1_linear)"/>
<path d="M57.5247 59.0858H195.603L220.833 174.065H82.4818L57.5247 59.0858Z" fill="#FCE61E"/>
<path d="M63.0999 63.0103H191.755L215.258 170.141H86.3516L63.0999 63.0103Z" fill="white"/>
<path d="M163.518 214.272C163.428 215.045 163.145 215.783 162.696 216.419C162.248 217.054 161.647 217.568 160.95 217.912C158.938 219.093 156.478 219.159 154.139 219.191C152.517 219.334 150.883 219.122 149.351 218.568C148.044 217.864 146.871 216.935 145.886 215.824C140.201 210.359 132.647 206.215 129.827 198.88C128.461 195.317 128.395 191.414 128.351 187.621C128.351 183.587 128.351 179.16 131.029 176.131C133.117 173.737 136.572 172.524 137.927 169.649C135.646 168.365 133.574 166.739 131.784 164.828C130.901 163.862 130.247 162.711 129.868 161.458C129.49 160.206 129.397 158.884 129.597 157.591C132.765 158.647 135.798 160.067 138.638 161.822C143.818 165.023 148.302 169.232 151.824 174.199C155.347 179.166 157.837 184.789 159.146 190.736C160.239 195.994 160.348 201.46 161.791 206.653C162.436 209.058 163.803 211.856 163.518 214.272Z" fill="#F9BA9F"/>
<path d="M163.518 214.272C162.998 214.504 162.533 214.843 162.152 215.267C160.676 217.453 157.036 216.896 155.178 214.983C153.319 213.07 152.598 210.37 151.33 208.019C148.159 202.061 141.294 197.579 141.316 190.835C141.316 185.62 145.689 180.996 145.295 175.869C145.077 173.158 143.601 170.95 142.016 168.895C140.543 166.722 139.412 164.337 138.66 161.822C143.839 165.023 148.324 169.232 151.846 174.199C155.369 179.166 157.859 184.789 159.168 190.736C160.261 195.994 160.37 201.46 161.813 206.653C162.436 209.058 163.803 211.856 163.518 214.272Z" fill="url(#paint2_linear)"/>
<path d="M302.93 285.088C301.586 291.811 299.574 298.763 295.617 304.229C295.049 304.306 294.524 304.382 293.912 304.437C290.501 304.852 287.076 305.147 283.636 305.322C270.375 305.836 257.094 305.2 243.943 303.42C229.251 301.605 214.646 298.982 199.976 296.97C200.662 296.195 201.448 295.515 202.315 294.948C206.701 291.687 210.315 287.501 212.903 282.688C215.492 277.874 216.99 272.551 217.291 267.094C216.422 266.514 215.407 266.188 214.362 266.154C211.585 265.892 208.01 266.493 205.966 266.241C188.978 264.11 146.225 222.427 146.225 222.427L167.465 211.802L199.068 222.427C199.068 222.427 233.055 169.059 246.862 153.743C260.668 138.428 285.571 138.111 285.571 138.111C288.555 137.999 291.537 138.368 294.404 139.204C311.326 144.156 320.049 164.675 321.186 182.045C323.471 216.218 309.533 252.129 302.93 285.088Z" fill="white"/>
<path d="M306.538 99.9047C306.254 102.432 305.556 104.896 304.472 107.196C303.848 108.747 302.957 110.175 301.837 111.416C299.651 113.362 299.585 116.652 298.241 119.221C297.322 120.862 296.048 122.278 294.513 123.364C291.44 125.632 287.856 127.109 284.077 127.664C280.299 128.218 276.441 127.834 272.846 126.545L271.753 126.13C271.283 125.393 270.915 124.594 270.66 123.758L275.033 123.605C274.949 122.072 274.33 120.618 273.284 119.494L283.242 119.298C284.603 119.459 285.978 119.166 287.155 118.464C288.331 117.762 289.243 116.691 289.747 115.417C291.255 113.077 292.819 110.519 292.567 107.765C292.312 106.144 291.744 104.588 290.895 103.184C288.708 98.91 286.522 94.4389 285.91 89.7055C285.298 84.972 286.708 79.6264 290.523 76.6749C291.328 76.1765 292.038 75.54 292.622 74.7946C293.11 73.8971 293.28 72.8604 293.103 71.854C292.6 67.2846 289.047 63.7318 285.702 60.5616L278.301 53.5106C279.132 54.3086 282.914 54.407 284.15 54.8006C286.23 55.5133 288.27 56.338 290.261 57.2711C289.954 56.3638 289.167 55.0848 288.479 53.6199C291.103 54.9259 293.553 56.5566 295.77 58.4736C301.367 63.3929 304.865 70.4001 306.407 77.6806C307.784 85.0207 307.828 92.5489 306.538 99.9047Z" fill="#D45319"/>
<path d="M302.93 285.088C301.586 291.811 299.574 298.763 295.617 304.229C295.049 304.306 294.524 304.382 293.912 304.437C278.684 305.956 264.396 307.224 249.267 303.912C246.916 303.398 244.14 302.371 243.724 299.998C243.636 298.627 243.989 297.264 244.73 296.107C255.093 275.184 261.729 250.915 261.445 227.456C255.804 226.745 248.84 237.666 244.73 241.394L229.611 255.102C223.052 261.005 215.51 267.302 206.753 266.613C201.594 266.209 196.98 263.399 192.542 260.666L176.986 250.915C172.406 248.062 167.432 244.684 166.23 239.415C173.543 239.973 179.949 244.214 186.508 247.483C193.067 250.751 200.97 253.145 207.562 249.942C212.307 247.636 215.324 242.924 218.144 238.475C236.668 209.195 256.977 181.084 278.957 154.301C284.259 147.84 285.145 138.209 294.436 139.248C311.359 144.2 320.082 164.719 321.219 182.089C323.471 216.218 309.533 252.129 302.93 285.088Z" fill="url(#paint3_linear)"/>
<path opacity="0.18" d="M94.8018 84.1959C95.9524 82.7173 97.3965 81.4928 99.0433 80.5994C100.926 79.4749 102.996 78.7008 105.154 78.3147C107.938 77.957 110.767 78.3007 113.385 79.3144C116.002 80.3282 118.325 81.9799 120.142 84.1194C123.743 88.4963 125.611 94.0441 125.389 99.708C126.124 99.4586 126.923 99.4727 127.649 99.748C128.375 100.023 128.983 100.542 129.368 101.217C130.087 102.601 130.354 104.176 130.133 105.72C130.111 107.015 129.733 108.278 129.04 109.372C128.682 109.91 128.166 110.324 127.563 110.557C126.96 110.79 126.3 110.83 125.673 110.672C126.046 112.264 126.056 113.92 125.7 115.515C125.344 117.111 124.632 118.606 123.618 119.888C122.765 120.981 121.661 121.954 121.431 123.299C121.213 124.982 122.525 126.513 124.099 127.245C125.694 127.819 127.322 128.297 128.974 128.677C132.55 130.049 135.49 132.698 137.228 136.111C138.938 139.499 140.219 143.086 141.043 146.791C141.24 147.534 141.393 148.441 140.824 148.977C140.416 149.271 139.915 149.407 139.414 149.36L96.1136 150.704C95.6217 145.687 95.3375 140.013 98.7154 136.264C101.328 133.378 105.438 132.492 109.264 131.749C109.218 129.537 108.7 127.36 107.745 125.365C107.497 124.742 107.085 124.198 106.553 123.791C105.974 123.491 105.35 123.288 104.706 123.189C100.454 122.096 98.1469 117.516 97.0538 113.263C96.9144 112.493 96.6405 111.753 96.2448 111.077C95.6186 110.308 94.8262 109.692 93.9273 109.273C88.6473 106.245 87.5432 102.867 91.3474 98.3415C94.769 94.4389 91.4786 88.7763 94.8018 84.1959Z" fill="#FCE61E"/>
<path opacity="0.32" d="M15.6673 24.5417L33.8686 114.652H88.2319L72.8291 24.5417H15.6673Z" fill="#FCE61E"/>
<path opacity="0.32" d="M32.3163 147.294L50.5066 237.415H104.87L89.4672 147.294H32.3163Z" fill="#FCE61E"/>
<path opacity="0.32" d="M143.207 24.5417L161.398 114.652H215.761L200.358 24.5417H143.207Z" fill="#FCE61E"/>
<path d="M148.968 15.2935L167.159 105.403H221.522L206.119 15.2935H148.968Z" fill="url(#paint4_linear)"/>
<path d="M25.484 27.0013L41.5536 106.595H89.5656L75.9665 27.0013H25.484Z" fill="url(#paint5_linear)"/>
<path d="M36.3829 143.336L54.5732 233.446H108.937L93.5338 143.336H36.3829Z" fill="url(#paint6_linear)"/>
<defs>
<linearGradient id="paint0_linear" x1="65.1113" y1="116.324" x2="201.342" y2="415.853" gradientUnits="userSpaceOnUse">
<stop offset="0.01"/>
<stop offset="0.13" stop-opacity="0.69"/>
<stop offset="0.25" stop-opacity="0.32"/>
<stop offset="1" stop-opacity="0"/>
</linearGradient>
<linearGradient id="paint1_linear" x1="24381.3" y1="9198.9" x2="12598.5" y2="34144.5" gradientUnits="userSpaceOnUse">
<stop offset="0.01"/>
<stop offset="0.13" stop-opacity="0.69"/>
<stop offset="0.25" stop-opacity="0.32"/>
<stop offset="1" stop-opacity="0"/>
</linearGradient>
<linearGradient id="paint2_linear" x1="4607.93" y1="9025.49" x2="2306.45" y2="9624.41" gradientUnits="userSpaceOnUse">
<stop offset="0.01"/>
<stop offset="0.13" stop-opacity="0.69"/>
<stop offset="0.25" stop-opacity="0.32"/>
<stop offset="1" stop-opacity="0"/>
</linearGradient>
<linearGradient id="paint3_linear" x1="89971.7" y1="29537.3" x2="-20485.3" y2="40813.4" gradientUnits="userSpaceOnUse">
<stop offset="0.01"/>
<stop offset="0.13" stop-opacity="0.69"/>
<stop offset="0.25" stop-opacity="0.32"/>
<stop offset="1" stop-opacity="0"/>
</linearGradient>
<linearGradient id="paint4_linear" x1="135.796" y1="22.88" x2="640.326" y2="394.645" gradientUnits="userSpaceOnUse">
<stop offset="0.01" stop-color="white"/>
<stop offset="0.13" stop-color="white" stop-opacity="0.69"/>
<stop offset="0.15" stop-color="white" stop-opacity="0.61"/>
<stop offset="0.2" stop-color="white" stop-opacity="0.47"/>
<stop offset="0.25" stop-color="white" stop-opacity="0.34"/>
<stop offset="0.3" stop-color="white" stop-opacity="0.23"/>
<stop offset="0.36" stop-color="white" stop-opacity="0.15"/>
<stop offset="0.44" stop-color="white" stop-opacity="0.08"/>
<stop offset="0.52" stop-color="white" stop-opacity="0.03"/>
<stop offset="0.65" stop-color="white" stop-opacity="0.01"/>
<stop offset="1" stop-color="white" stop-opacity="0"/>
</linearGradient>
<linearGradient id="paint5_linear" x1="648.998" y1="2480.87" x2="30465.6" y2="20169.6" gradientUnits="userSpaceOnUse">
<stop offset="0.01" stop-color="white"/>
<stop offset="0.13" stop-color="white" stop-opacity="0.69"/>
<stop offset="0.15" stop-color="white" stop-opacity="0.61"/>
<stop offset="0.2" stop-color="white" stop-opacity="0.47"/>
<stop offset="0.25" stop-color="white" stop-opacity="0.34"/>
<stop offset="0.3" stop-color="white" stop-opacity="0.23"/>
<stop offset="0.36" stop-color="white" stop-opacity="0.15"/>
<stop offset="0.44" stop-color="white" stop-opacity="0.08"/>
<stop offset="0.52" stop-color="white" stop-opacity="0.03"/>
<stop offset="0.65" stop-color="white" stop-opacity="0.01"/>
<stop offset="1" stop-color="white" stop-opacity="0"/>
</linearGradient>
<linearGradient id="paint6_linear" x1="1364.11" y1="12583.9" x2="39579.4" y2="35256.7" gradientUnits="userSpaceOnUse">
<stop offset="0.01" stop-color="white"/>
<stop offset="0.13" stop-color="white" stop-opacity="0.69"/>
<stop offset="0.15" stop-color="white" stop-opacity="0.61"/>
<stop offset="0.2" stop-color="white" stop-opacity="0.47"/>
<stop offset="0.25" stop-color="white" stop-opacity="0.34"/>
<stop offset="0.3" stop-color="white" stop-opacity="0.23"/>
<stop offset="0.36" stop-color="white" stop-opacity="0.15"/>
<stop offset="0.44" stop-color="white" stop-opacity="0.08"/>
<stop offset="0.52" stop-color="white" stop-opacity="0.03"/>
<stop offset="0.65" stop-color="white" stop-opacity="0.01"/>
<stop offset="1" stop-color="white" stop-opacity="0"/>
</linearGradient>
</defs>
</svg>
