<svg width="331" height="234" viewBox="0 0 331 234" fill="none" xmlns="http://www.w3.org/2000/svg">
<path opacity="0.24" d="M128.847 223.882C154.146 219.887 179.821 225.99 205.234 229.294C230.647 232.598 258.65 232.486 279.286 218.199C303.565 201.38 310.371 169.993 309.732 141.686C309.018 108.918 299.878 74.6768 275.436 51.2441C262.402 38.7527 245.856 30.0876 229.496 21.7293C209.04 11.2636 187.532 0.75191 164.251 0.0357821C143.899 -0.491764 124.143 6.51028 109.248 19.5298C97.6484 29.7602 89.7736 43.0904 80.0992 54.9628C62.2337 76.8866 37.606 94.7335 26.7373 120.371C16.8448 143.701 20.4659 171.651 36.0572 192.055C51.6486 212.46 78.6649 224.701 105.392 223.442" fill="#FCE61E"/>
<path d="M105.387 202.276L250.056 220.665C252.635 220.993 255.25 220.369 257.349 218.924C259.447 217.479 260.866 215.327 261.306 212.92L272.447 152.177C272.675 150.936 272.634 149.664 272.329 148.437C272.023 147.21 271.459 146.053 270.669 145.034C269.879 144.015 268.88 143.155 267.73 142.505C266.58 141.854 265.302 141.426 263.973 141.246L132.545 123.512C130.285 123.205 127.982 123.63 126.014 124.716C124.046 125.802 122.532 127.485 121.72 129.486L97.3593 189.58C96.8208 190.906 96.6083 192.328 96.7378 193.742C96.8672 195.156 97.3352 196.524 98.1069 197.744C98.8786 198.965 99.934 200.006 101.194 200.791C102.455 201.575 103.888 202.083 105.387 202.276Z" fill="#FCE61E"/>
<path d="M105.387 202.276L250.056 220.665C252.635 220.993 255.25 220.369 257.349 218.924C259.447 217.479 260.866 215.327 261.306 212.92L272.447 152.177C272.675 150.936 272.634 149.664 272.329 148.437C272.023 147.21 271.459 146.053 270.669 145.034C269.879 144.015 268.88 143.155 267.73 142.505C266.58 141.854 265.302 141.426 263.973 141.246L132.545 123.512C130.285 123.205 127.982 123.63 126.014 124.716C124.046 125.802 122.532 127.485 121.72 129.486L97.3593 189.58C96.8208 190.906 96.6083 192.328 96.7378 193.742C96.8672 195.156 97.3352 196.524 98.1069 197.744C98.8786 198.965 99.934 200.006 101.194 200.791C102.455 201.575 103.888 202.083 105.387 202.276Z" fill="url(#paint0_linear)"/>
<path d="M132.343 118.964L266.858 137.072C268.998 137.362 271.176 136.864 272.934 135.682C274.692 134.499 275.893 132.724 276.287 130.729L293.334 43.0649C293.539 42.0105 293.511 40.9279 293.253 39.8838C292.995 38.8398 292.512 37.8563 291.833 36.9938C291.155 36.1314 290.296 35.4083 289.308 34.8689C288.321 34.3295 287.226 33.9854 286.092 33.8575L138.178 17.1718C137.03 17.0424 135.866 17.1374 134.759 17.4507C133.652 17.7641 132.626 18.289 131.746 18.9925C130.866 19.6959 130.151 20.5627 129.645 21.5381C129.14 22.5136 128.855 23.5767 128.809 24.6604L125.172 110.892C125.094 112.831 125.783 114.728 127.107 116.218C128.431 117.708 130.296 118.687 132.343 118.964Z" fill="#FCE61E"/>
<path d="M136.695 118.708L262.053 135.589C264.052 135.859 266.085 135.392 267.725 134.285C269.364 133.178 270.482 131.519 270.844 129.655L286.73 47.9601C286.922 46.9771 286.898 45.9675 286.658 44.9936C286.419 44.0198 285.969 43.1023 285.337 42.2976C284.705 41.493 283.904 40.8182 282.983 40.315C282.063 39.8118 281.042 39.4908 279.984 39.3717L142.132 23.8215C141.062 23.7021 139.978 23.7917 138.947 24.0844C137.916 24.3772 136.961 24.8668 136.141 25.5226C135.322 26.1784 134.656 26.9861 134.185 27.8949C133.714 28.8038 133.449 29.7941 133.407 30.8037L130.009 111.153C129.928 112.966 130.568 114.741 131.803 116.137C133.038 117.533 134.781 118.449 136.695 118.708Z" fill="#FCE61E"/>
<path d="M136.695 118.708L262.053 135.589C264.052 135.859 266.085 135.392 267.725 134.285C269.364 133.178 270.482 131.519 270.844 129.655L286.73 47.9601C286.922 46.9771 286.898 45.9675 286.658 44.9936C286.419 44.0198 285.969 43.1023 285.337 42.2976C284.705 41.493 283.904 40.8182 282.983 40.315C282.063 39.8118 281.042 39.4908 279.984 39.3717L142.132 23.8215C141.062 23.7021 139.978 23.7917 138.947 24.0844C137.916 24.3772 136.961 24.8668 136.141 25.5226C135.322 26.1784 134.656 26.9861 134.185 27.8949C133.714 28.8038 133.449 29.7941 133.407 30.8037L130.009 111.153C129.928 112.966 130.568 114.741 131.803 116.137C133.038 117.533 134.781 118.449 136.695 118.708Z" fill="url(#paint1_linear)"/>
<path d="M168.456 59.9655L174.242 55.0447L183.791 56.5537L181.37 66.6511L164.687 64.3799L168.456 59.9655Z" fill="#FCE61E"/>
<path d="M168.456 59.9655L174.242 55.0447L183.791 56.5537L181.37 66.6511L164.687 64.3799L168.456 59.9655Z" fill="url(#paint2_linear)"/>
<path d="M179.668 60.4259L189.49 60.8044L190.428 67.7458L175.223 65.8531L179.668 60.4259Z" fill="#FCE61E"/>
<path d="M179.668 60.4259L189.49 60.8044L190.428 67.7458L175.223 65.8531L179.668 60.4259Z" fill="url(#paint3_linear)"/>
<path d="M186.752 57.188L181.37 66.6511L196.306 68.0424L196.039 57.8172L186.752 57.188Z" fill="#FCE61E"/>
<path d="M186.752 57.188L181.37 66.6511L196.306 68.0424L196.039 57.8172L186.752 57.188Z" fill="url(#paint4_linear)"/>
<path d="M153.742 63.4541L153.203 53.193L170.604 53.3567L171.864 65.981L153.742 63.4541Z" fill="#FCE61E"/>
<path d="M153.742 63.4541L153.203 53.193L170.604 53.3567L171.864 65.981L153.742 63.4541Z" fill="url(#paint5_linear)"/>
<path d="M106.194 196.47L250.879 214.884C253.459 215.213 256.073 214.589 258.172 213.144C260.271 211.699 261.69 209.547 262.129 207.14L273.271 146.397C273.503 145.153 273.465 143.877 273.161 142.646C272.857 141.416 272.292 140.255 271.5 139.233C270.708 138.212 269.704 137.35 268.55 136.699C267.396 136.048 266.113 135.622 264.78 135.445L133.352 117.706C131.092 117.4 128.789 117.825 126.821 118.911C124.853 119.997 123.339 121.679 122.527 123.68L98.1501 183.774C97.6115 185.101 97.3995 186.525 97.5298 187.94C97.6602 189.354 98.1296 190.723 98.9031 191.944C99.6765 193.165 100.734 194.206 101.996 194.989C103.259 195.773 104.694 196.279 106.194 196.47Z" fill="#FCE61E"/>
<path d="M243.266 189.155L124.823 174.771C117.706 173.794 113.371 167.538 115.176 160.801L126.181 135.512C127.969 128.775 135.19 124.105 142.312 125.087L253.431 140.371C260.548 141.348 264.883 147.604 263.078 154.341L259.397 178.73C257.609 185.462 250.383 190.137 243.266 189.155Z" fill="url(#paint6_linear)"/>
<path d="M151.736 196.531C151.157 198.547 150.525 200.649 149.009 202.158C145.922 205.171 140.709 204.567 136.34 203.738C135.293 203.539 134.192 203.319 133.385 202.659C132.701 202.021 132.209 201.225 131.956 200.352C128.684 191.38 132.169 181.467 136.989 173.134C138.702 170.178 140.616 167.272 143.234 164.975C147.155 161.533 152.352 159.717 157.413 157.983C152.651 162.131 148.826 167.135 146.165 172.696C143.503 178.257 142.06 184.263 141.919 190.357C141.919 191.334 150.279 186.111 150.787 186.081C155.449 185.789 152.439 194.091 151.736 196.531Z" fill="url(#paint7_linear)"/>
<path d="M213.299 197.692C215.399 192.674 217.542 187.344 216.571 182.03C215.857 178.132 213.501 174.546 213.299 170.592C213.19 168.295 213.845 165.952 213.299 163.712C212.209 159.206 206.897 156.837 204.318 152.893C203.527 151.691 203.069 149.983 204.127 148.98C204.89 148.249 206.117 148.223 207.202 148.269C216.919 148.682 226.477 150.726 235.424 154.305C239.438 155.911 243.506 157.983 245.785 161.466C248.065 164.95 248.185 169.323 248.125 173.436C247.919 186.609 246.624 199.746 244.253 212.731C244.201 213.352 243.965 213.948 243.571 214.45C242.715 215.345 241.194 215.14 239.945 214.859C231.879 213.048 226.764 212.813 218.676 211.028C216.233 210.475 210.022 210.398 207.911 209.345C208.871 206.03 211.881 201.053 213.299 197.692Z" fill="url(#paint8_linear)"/>
<path d="M244.122 138.443C240.305 136.719 235.451 136.397 231.988 138.714C229.136 140.607 227.718 143.865 226.835 147.031C225.515 151.758 225.084 156.807 226.508 161.502C227.931 166.198 231.416 170.485 236.258 172.28C241.101 174.075 247.236 172.935 250.377 169.042C252.908 165.912 253.208 161.727 253.415 157.789C253.589 154.407 255.122 148.433 253.486 145.512C251.915 142.689 247.067 139.824 244.122 138.443Z" fill="#F3A984"/>
<path d="M244.122 138.443C240.305 136.719 235.451 136.397 231.988 138.714C229.136 140.607 227.718 143.865 226.835 147.031C225.515 151.758 225.084 156.807 226.508 161.502C227.931 166.198 231.416 170.485 236.258 172.28C241.101 174.075 247.236 172.935 250.377 169.042C252.908 165.912 253.208 161.727 253.415 157.789C253.589 154.407 255.122 148.433 253.486 145.512C251.915 142.689 247.067 139.824 244.122 138.443Z" fill="url(#paint9_linear)"/>
<path d="M245.988 119.337L207.608 101.608C205.379 100.578 202.682 101.438 201.584 103.529L190.819 124.032C189.721 126.123 190.638 128.653 192.867 129.682L231.247 147.412C233.477 148.442 236.174 147.582 237.271 145.491L248.037 124.988C249.135 122.897 248.217 120.367 245.988 119.337Z" fill="#FCE61E"/>
<path d="M246.529 120.144L208.075 102.51C205.887 101.507 203.247 102.357 202.177 104.409L191.946 124.039C190.876 126.091 191.783 128.568 193.97 129.571L232.425 147.205C234.613 148.208 237.253 147.358 238.322 145.306L248.554 125.676C249.623 123.624 248.717 121.148 246.529 120.144Z" fill="url(#paint10_linear)"/>
<path d="M225.384 143.517C223.064 140.897 219.875 139.08 216.326 138.356C215.365 138.119 214.358 138.098 213.387 138.295C212.902 138.399 212.455 138.618 212.087 138.932C211.719 139.246 211.444 139.643 211.287 140.085C211.144 140.835 211.25 141.608 211.592 142.3C213.458 147.057 217.509 150.863 219.26 155.656C220.721 159.661 222.974 162.766 223.148 166.991C223.366 172.464 221.883 177.994 222.963 183.36C223.715 187.109 225.69 190.618 226.033 194.419C226.262 196.945 225.815 199.718 227.298 201.841C229.142 204.48 233.03 204.864 236.389 204.981C239.361 205.089 242.65 205.099 244.913 203.283C246.233 202.229 246.996 200.7 247.716 199.222L261.404 171.231C262.184 169.635 262.98 167.963 262.887 166.208C262.751 163.758 260.941 161.727 259.828 159.507C256.174 152.244 260.188 143.65 259.146 135.676C258.263 128.918 253.797 123.056 248.856 118.069C247.678 116.877 246.074 115.609 244.411 116.064C242.29 116.647 242.072 119.517 243.113 121.343C244.155 123.169 245.976 124.576 246.713 126.53C247.258 128.039 247.122 129.691 246.963 131.287L245.873 142.111C245.589 144.929 245.327 147.737 244.815 150.551C244.226 153.901 242.797 157.763 239.307 158.658C236.58 159.364 233.657 157.799 231.934 155.681C230.21 153.563 229.343 150.955 228.198 148.52C227.053 146.085 227.189 145.563 225.384 143.517Z" fill="#F3A984"/>
<path d="M235.282 196.557C232.834 196.137 230.374 195.493 227.887 195.651C225.401 195.81 222.788 197.002 221.889 199.181C221.512 200.076 221.458 201.063 221.136 201.974C220.662 203.324 219.636 204.434 218.955 205.692C217.809 207.739 217.531 210.076 217.269 212.368L215.224 230.271C228.084 234.629 243.081 236.015 254.953 229.652C255.761 229.288 256.448 228.726 256.943 228.025C257.445 227.171 257.369 226.133 257.276 225.166C256.48 216.562 256.567 207.38 254.849 198.905C253.857 194.025 251.942 195.989 247.405 196.705C243.184 197.38 239.416 196.557 235.282 196.557Z" fill="#FCE61E"/>
<path d="M204.63 113.636L207.579 114.965C208.919 115.569 209.949 116.647 210.441 117.963C210.934 119.279 210.849 120.725 210.205 121.982L210.047 122.291C209.782 122.808 209.309 123.205 208.731 123.395C208.154 123.585 207.52 123.552 206.968 123.304L201.045 120.635C200.772 120.512 200.528 120.339 200.325 120.128C200.123 119.916 199.968 119.669 199.867 119.401C199.767 119.133 199.724 118.849 199.741 118.565C199.757 118.281 199.834 118.004 199.965 117.747L201.552 114.649C201.683 114.393 201.867 114.164 202.092 113.974C202.318 113.784 202.581 113.639 202.867 113.544C203.153 113.45 203.456 113.41 203.758 113.426C204.061 113.441 204.357 113.513 204.63 113.636Z" fill="url(#paint11_linear)"/>
<path d="M208.872 127.788L206.717 126.822L205.077 130.038L207.232 131.005L208.872 127.788Z" fill="url(#paint12_linear)"/>
<path d="M212.072 129.304L209.917 128.337L208.277 131.554L210.432 132.52L212.072 129.304Z" fill="url(#paint13_linear)"/>
<path d="M215.272 130.82L213.117 129.853L211.477 133.069L213.632 134.036L215.272 130.82Z" fill="url(#paint14_linear)"/>
<path d="M218.478 132.33L216.323 131.363L214.683 134.58L216.838 135.546L218.478 132.33Z" fill="url(#paint15_linear)"/>
<path d="M221.676 133.85L219.521 132.884L217.881 136.1L220.036 137.067L221.676 133.85Z" fill="url(#paint16_linear)"/>
<path d="M224.876 135.366L222.721 134.399L221.081 137.616L223.236 138.582L224.876 135.366Z" fill="url(#paint17_linear)"/>
<path d="M228.077 136.882L225.922 135.915L224.282 139.131L226.437 140.098L228.077 136.882Z" fill="url(#paint18_linear)"/>
<path d="M231.282 138.392L229.127 137.425L227.487 140.642L229.642 141.608L231.282 138.392Z" fill="url(#paint19_linear)"/>
<path d="M234.483 139.908L232.328 138.941L230.688 142.157L232.843 143.124L234.483 139.908Z" fill="url(#paint20_linear)"/>
<path d="M154.14 185.81C154.298 185.431 154.341 185.018 154.266 184.618C154.109 184.204 153.794 183.86 153.382 183.651C150.896 182.173 147.52 183.308 145.311 185.129C143.103 186.95 141.494 189.395 139.209 191.109C137.867 186.925 139.874 182.51 141.838 178.546C145.415 171.323 149.472 163.625 156.9 159.799C157.805 159.339 158.847 158.837 159.125 157.906C159.605 156.331 157.533 155.093 155.787 155.037C153.192 154.95 150.727 156.095 148.153 156.305C145.971 156.479 143.79 155.988 141.608 156.014C139.669 156.104 137.747 156.397 135.877 156.888C131.449 157.886 126.884 158.934 123.247 161.492C120.76 163.247 118.846 165.615 117.079 168.019C114.401 171.656 111.942 175.503 110.638 179.748C108.255 187.503 109.826 196.224 105.965 203.437C104.596 205.994 102.518 208.659 103.342 211.411C103.991 213.59 106.287 214.951 108.501 215.851C113.108 217.718 118.125 218.526 123.132 218.209C124.038 218.179 124.932 218.007 125.777 217.698C126.625 217.3 127.403 216.782 128.084 216.163C138.865 207.355 150.459 199.61 154.14 185.81Z" fill="#F3A984"/>
<path d="M184.069 203.749L160.243 200.628C157.516 200.27 155.962 198.071 156.775 195.708L159.823 186.894C160.636 184.531 163.51 182.909 166.242 183.267L190.068 186.388C192.794 186.746 194.349 188.945 193.531 191.309L190.488 200.122C189.686 202.485 186.796 204.107 184.069 203.749Z" fill="url(#paint21_linear)"/>
<path d="M88.4375 221.483C94.5726 223.744 100.757 226.02 107.23 227.187C113.703 228.353 120.564 228.353 126.721 226.138C127.991 225.683 129.376 224.967 129.66 223.718C129.862 222.834 129.442 221.938 129.027 221.115L127.064 217.217C126.896 216.711 126.559 216.269 126.104 215.956C125.649 215.642 125.099 215.473 124.534 215.473C120.536 214.818 116.43 214.414 112.689 212.915C106.45 210.45 106.052 203.923 99.1862 207.866C97.6811 208.751 87.0414 220.966 88.4375 221.483Z" fill="#FCE61E"/>
<path d="M199.84 104.35L142.072 97.6083L150.694 63.2904L159.338 64.1549L161.284 64.3493L186.305 66.8608L188.257 67.0552L197.697 68.0066L199.84 104.35Z" fill="#FCE61E"/>
<path d="M186.196 43.4997C182.809 39.3717 177.612 37.5456 171.553 38.3333C169.899 38.5233 168.305 39.0344 166.874 39.8341C165.442 40.6337 164.203 41.7044 163.237 42.9779C158.361 49.1622 158.874 59.6535 159.338 64.1548L161.284 64.3492C160.826 60.298 160.194 49.8425 164.764 44.0368C165.591 42.9636 166.643 42.0612 167.857 41.3854C169.071 40.7096 170.42 40.2749 171.821 40.1083C177.23 39.3922 181.68 40.9523 184.685 44.5892C188.928 49.7556 189.501 58.3235 186.321 66.8608L188.268 67.0552C191.507 58.0933 190.76 49.0548 186.196 43.4997Z" fill="#FCE61E"/>
<path d="M199.84 104.35L142.072 97.6083L150.694 63.2904L159.338 64.1549L161.284 64.3493L186.305 66.8608L188.257 67.0552L197.697 68.0066L199.84 104.35Z" fill="#FCE61E"/>
<path d="M186.196 43.4997C182.809 39.3717 177.612 37.5456 171.553 38.3333C169.899 38.5233 168.305 39.0344 166.874 39.8341C165.442 40.6337 164.203 41.7044 163.237 42.9779C158.361 49.1622 158.874 59.6535 159.338 64.1548L161.284 64.3492C160.826 60.298 160.194 49.8425 164.764 44.0368C165.591 42.9636 166.643 42.0612 167.857 41.3854C169.071 40.7096 170.42 40.2749 171.821 40.1083C177.23 39.3922 181.68 40.9523 184.685 44.5892C188.928 49.7556 189.501 58.3235 186.321 66.8608L188.268 67.0552C191.507 58.0933 190.76 49.0548 186.196 43.4997Z" fill="#FCE61E"/>
<path d="M269.903 57.154L221.91 52.1364C219.21 51.8541 216.778 53.6783 216.477 56.2108L216.414 56.7395C216.113 59.272 218.058 61.5539 220.758 61.8361L268.751 66.8537C271.451 67.136 273.883 65.3118 274.184 62.7793L274.247 62.2506C274.548 59.7181 272.603 57.4363 269.903 57.154Z" fill="url(#paint22_linear)"/>
<path d="M268.555 70.5381L220.562 65.5206C217.862 65.2383 215.429 67.0625 215.128 69.595L215.065 70.1237C214.765 72.6562 216.709 74.938 219.409 75.2203L267.402 80.2379C270.102 80.5202 272.535 78.696 272.836 76.1635L272.899 75.6348C273.2 73.1023 271.255 70.8204 268.555 70.5381Z" fill="url(#paint23_linear)"/>
<path d="M267.212 83.9126L219.219 78.895C216.52 78.6127 214.087 80.4369 213.786 82.9694L213.723 83.4981C213.422 86.0306 215.367 88.3125 218.067 88.5948L266.06 93.6123C268.76 93.8946 271.192 92.0704 271.493 89.5379L271.556 89.0092C271.857 86.4767 269.912 84.1949 267.212 83.9126Z" fill="url(#paint24_linear)"/>
<defs>
<linearGradient id="paint0_linear" x1="183.649" y1="154.418" x2="193.123" y2="341.771" gradientUnits="userSpaceOnUse">
<stop stop-color="#010101" stop-opacity="0"/>
<stop offset="0.95" stop-color="#010101"/>
</linearGradient>
<linearGradient id="paint1_linear" x1="225.079" y1="-28.195" x2="187.025" y2="175.679" gradientUnits="userSpaceOnUse">
<stop stop-color="white" stop-opacity="0"/>
<stop offset="0.66" stop-color="white"/>
</linearGradient>
<linearGradient id="paint2_linear" x1="5572.86" y1="1356.93" x2="5493.39" y2="1795.73" gradientUnits="userSpaceOnUse">
<stop stop-color="#010101" stop-opacity="0"/>
<stop offset="0.95" stop-color="#010101"/>
</linearGradient>
<linearGradient id="paint3_linear" x1="4625.34" y1="931.27" x2="4698.34" y2="1195.85" gradientUnits="userSpaceOnUse">
<stop stop-color="#010101" stop-opacity="0"/>
<stop offset="0.95" stop-color="#010101"/>
</linearGradient>
<linearGradient id="paint4_linear" x1="4719.36" y1="1307.51" x2="5021.03" y2="2125.75" gradientUnits="userSpaceOnUse">
<stop stop-color="#010101" stop-opacity="0"/>
<stop offset="0.95" stop-color="#010101"/>
</linearGradient>
<linearGradient id="paint5_linear" x1="5077.64" y1="1431.1" x2="4824.88" y2="2106.63" gradientUnits="userSpaceOnUse">
<stop stop-color="#010101" stop-opacity="0"/>
<stop offset="0.95" stop-color="#010101"/>
</linearGradient>
<linearGradient id="paint6_linear" x1="52854.3" y1="16146" x2="49703.4" y2="39059.8" gradientUnits="userSpaceOnUse">
<stop stop-color="#010101" stop-opacity="0"/>
<stop offset="0.95" stop-color="#010101"/>
</linearGradient>
<linearGradient id="paint7_linear" x1="5931.33" y1="19131.6" x2="12984.9" y2="13940.9" gradientUnits="userSpaceOnUse">
<stop stop-color="#010101" stop-opacity="0"/>
<stop offset="0.95" stop-color="#010101"/>
</linearGradient>
<linearGradient id="paint8_linear" x1="17535.9" y1="20693.4" x2="21347.1" y2="35195.4" gradientUnits="userSpaceOnUse">
<stop stop-color="#010101" stop-opacity="0"/>
<stop offset="0.95" stop-color="#010101"/>
</linearGradient>
<linearGradient id="paint9_linear" x1="11819.7" y1="10377.7" x2="13852.9" y2="12708.9" gradientUnits="userSpaceOnUse">
<stop stop-color="#010101" stop-opacity="0"/>
<stop offset="0.95" stop-color="#010101"/>
</linearGradient>
<linearGradient id="paint10_linear" x1="19947.2" y1="6609.75" x2="22439.2" y2="14771.5" gradientUnits="userSpaceOnUse">
<stop stop-color="#010101" stop-opacity="0"/>
<stop offset="0.95" stop-color="#010101"/>
</linearGradient>
<linearGradient id="paint11_linear" x1="244.003" y1="3181.31" x2="105.061" y2="3400.54" gradientUnits="userSpaceOnUse">
<stop stop-color="white" stop-opacity="0"/>
<stop offset="0.66" stop-color="white"/>
</linearGradient>
<linearGradient id="paint12_linear" x1="-192.603" y1="1571.88" x2="1362.06" y2="3325.32" gradientUnits="userSpaceOnUse">
<stop stop-color="white" stop-opacity="0"/>
<stop offset="0.66" stop-color="white"/>
</linearGradient>
<linearGradient id="paint13_linear" x1="-182.285" y1="1568.51" x2="1372.37" y2="3321.94" gradientUnits="userSpaceOnUse">
<stop stop-color="white" stop-opacity="0"/>
<stop offset="0.66" stop-color="white"/>
</linearGradient>
<linearGradient id="paint14_linear" x1="-171.956" y1="1565.15" x2="1382.68" y2="3318.6" gradientUnits="userSpaceOnUse">
<stop stop-color="white" stop-opacity="0"/>
<stop offset="0.66" stop-color="white"/>
</linearGradient>
<linearGradient id="paint15_linear" x1="-161.628" y1="1561.77" x2="1393" y2="3315.24" gradientUnits="userSpaceOnUse">
<stop stop-color="white" stop-opacity="0"/>
<stop offset="0.66" stop-color="white"/>
</linearGradient>
<linearGradient id="paint16_linear" x1="-151.336" y1="1558.4" x2="1403.32" y2="3311.88" gradientUnits="userSpaceOnUse">
<stop stop-color="white" stop-opacity="0"/>
<stop offset="0.66" stop-color="white"/>
</linearGradient>
<linearGradient id="paint17_linear" x1="-141.029" y1="1555.08" x2="1413.64" y2="3308.53" gradientUnits="userSpaceOnUse">
<stop stop-color="white" stop-opacity="0"/>
<stop offset="0.66" stop-color="white"/>
</linearGradient>
<linearGradient id="paint18_linear" x1="-130.705" y1="1551.7" x2="1423.93" y2="3305.16" gradientUnits="userSpaceOnUse">
<stop stop-color="white" stop-opacity="0"/>
<stop offset="0.66" stop-color="white"/>
</linearGradient>
<linearGradient id="paint19_linear" x1="-120.381" y1="1548.34" x2="1434.25" y2="3301.77" gradientUnits="userSpaceOnUse">
<stop stop-color="white" stop-opacity="0"/>
<stop offset="0.66" stop-color="white"/>
</linearGradient>
<linearGradient id="paint20_linear" x1="-110.078" y1="1544.96" x2="1444.59" y2="3298.41" gradientUnits="userSpaceOnUse">
<stop stop-color="white" stop-opacity="0"/>
<stop offset="0.66" stop-color="white"/>
</linearGradient>
<linearGradient id="paint21_linear" x1="3567.85" y1="8150.9" x2="3510.85" y2="9550.72" gradientUnits="userSpaceOnUse">
<stop stop-color="#010101" stop-opacity="0"/>
<stop offset="0.95" stop-color="#010101"/>
</linearGradient>
<linearGradient id="paint22_linear" x1="21222.9" y1="3267.76" x2="21124.1" y2="3980.52" gradientUnits="userSpaceOnUse">
<stop stop-color="white" stop-opacity="0"/>
<stop offset="0.66" stop-color="white"/>
</linearGradient>
<linearGradient id="paint23_linear" x1="21215.1" y1="3538.3" x2="21116.4" y2="4251.12" gradientUnits="userSpaceOnUse">
<stop stop-color="white" stop-opacity="0"/>
<stop offset="0.66" stop-color="white"/>
</linearGradient>
<linearGradient id="paint24_linear" x1="21207.9" y1="3808.98" x2="21109.1" y2="4521.74" gradientUnits="userSpaceOnUse">
<stop stop-color="white" stop-opacity="0"/>
<stop offset="0.66" stop-color="white"/>
</linearGradient>
</defs>
</svg>
