<svg width="375" height="306" viewBox="0 0 375 306" fill="none" xmlns="http://www.w3.org/2000/svg">
<g clip-path="url(#clip0)">
<path opacity="0.18" d="M123.567 299.561C142.585 307.239 163.73 306.36 184.18 305.359C209.655 304.12 237.239 302.003 256.213 284.61C273.387 268.868 279.316 244.385 286.502 221.958C299.741 180.539 320.367 138.734 313.541 95.7337C309.149 68.3436 293.337 43.3956 271.797 26.6171C250.257 9.83869 223.183 1.0366 196.118 0.0790869C184.611 -0.325001 172.672 0.74671 162.553 6.37759C155.455 10.3306 149.657 16.3041 144.105 22.3478C121.475 47.1655 101.787 74.5144 85.4333 103.851C72.9154 126.269 62.1895 150.409 59.5541 176.068C55.2761 217.434 83.1933 283.318 123.567 299.561Z" fill="#FCE61E"/>
<path d="M214.662 76.276C214.662 70.2937 216.569 64.3027 215.488 58.4258C214.329 52.0746 209.778 46.1275 211.157 39.7939C212.036 35.8584 215.031 32.7662 217.921 29.9903L223.482 24.5615C224.083 23.8913 224.804 23.34 225.608 22.9364C226.482 22.6302 227.406 22.493 228.331 22.5323C234.105 22.4269 239.877 22.4854 245.645 22.708C250.424 22.8837 255.809 23.481 258.761 27.2408C261.396 30.6492 261.124 35.4807 260.193 39.706C259.261 43.9314 257.83 48.2358 258.673 52.4787C259.745 57.8636 264.409 62.8532 262.784 68.0976C262.081 70.3903 260.254 72.1824 259.393 74.4224C258.682 76.2672 258.585 78.4545 257.179 79.8425C256.168 80.676 254.957 81.2329 253.666 81.4588C244.442 83.9009 235.218 86.9755 225.959 89.1716C218.343 90.99 214.636 83.0752 214.662 76.276Z" fill="url(#paint0_linear)"/>
<path d="M184.444 289.371C219.928 289.371 248.694 284.156 248.694 277.723C248.694 271.289 219.928 266.074 184.444 266.074C148.959 266.074 120.194 271.289 120.194 277.723C120.194 284.156 148.959 289.371 184.444 289.371Z" fill="url(#paint1_linear)"/>
<path d="M176.327 263.632C176.327 263.632 177.715 272.724 176.968 273.761C176.221 274.797 171.855 274.446 169.167 273.857C166.479 273.269 165.829 269.781 165.829 269.781L165.645 266.918L176.327 263.632Z" fill="#F7AF81"/>
<path d="M212.712 260.479C212.712 260.479 214.469 271.6 213.872 272.566C213.275 273.532 209.155 273.383 206.756 273.093C204.358 272.803 204.051 266.724 204.051 266.724L203.647 264.238L212.712 260.479Z" fill="#F7AF81"/>
<path d="M177.17 45.9343C177.369 46.3953 177.617 46.8341 177.908 47.2432C178.83 48.8683 178.382 51.082 179.524 52.5666C179.805 51.3719 182.16 42.9739 181.044 42.4292C180.781 42.2975 179.393 43.457 179.068 43.6064C178.066 44.0368 176.669 44.3794 177.17 45.9343Z" fill="#7D3B3D"/>
<path d="M206.783 151.92L209.067 198.53L213.459 263.114C213.459 263.114 210.938 266.136 203.682 266.232L190.628 200.507L184.479 167.126L179.208 199.707L177.003 267.576C177.003 267.576 171.882 267.682 165.223 268.279L160.91 201.359L165.179 149.53L206.783 151.92Z" fill="#FCE61E"/>
<path d="M206.783 151.92L209.067 198.53L213.459 263.114C213.459 263.114 210.938 266.136 203.682 266.232L190.628 200.507L184.479 167.126L179.208 199.707L177.003 267.576C177.003 267.576 171.882 267.682 165.223 268.279L160.91 201.359L165.179 149.53L206.783 151.92Z" fill="url(#paint2_linear)"/>
<path d="M169.589 76.4429L165.592 98.5359C165.232 98.7731 153.777 106.547 152.415 108.339C151.054 110.132 145.247 112.538 143.262 112.89C141.277 113.241 136.858 109.464 137.569 103.701C138.281 97.9386 161.288 78.841 163.695 77.4794C166.102 76.1178 169.589 76.4429 169.589 76.4429Z" fill="white"/>
<path d="M167.006 87.8276L165.592 98.536C165.232 98.7732 153.777 106.547 152.415 108.339C151.054 110.132 145.247 112.538 143.262 112.89C141.277 113.241 136.858 109.464 137.569 103.701L149.868 101.944L167.006 87.8276Z" fill="url(#paint3_linear)"/>
<path d="M214.452 177.605C214.452 177.957 214.109 178.264 213.573 178.528C209.805 180.337 194.906 179.995 185.709 179.064C184.83 178.976 184.567 166.317 184.567 166.317C184.567 166.317 181.334 178.519 180.596 178.37C172.637 176.859 159.048 175.295 159.048 175.295C162.308 162.267 164.285 148.95 164.951 135.536C166.119 108.682 163.37 77.6464 164.239 76.9436C165.812 75.6786 181.027 70.9526 181.027 70.9526L196.839 72.323L198.78 73.2014C202.118 74.6772 208.689 77.5937 209.69 78.4721C209.743 78.4721 209.778 78.6654 209.813 78.9201C209.919 79.7107 209.972 81.494 209.998 84.0503C210.059 90.0238 209.998 100.205 210.051 111.845C210.051 113.074 210.051 114.322 210.051 115.587C210.121 123.95 210.288 132.901 210.622 141.475C211.254 157.463 214.539 176.402 214.452 177.605Z" fill="white"/>
<path d="M214.452 177.605C214.452 177.957 214.109 178.264 213.573 178.528C209.608 179.02 205.621 179.313 201.626 179.406L203.682 167.863L201.371 108.129L207.275 99.9239L210.015 111.853C210.015 121.262 210.209 131.627 210.604 141.483C211.254 157.463 214.539 176.402 214.452 177.605Z" fill="url(#paint4_linear)"/>
<path d="M222.911 121.068C221.427 123.264 218.238 123.862 215.796 122.825C214.597 122.253 213.528 121.44 212.658 120.436C211.787 119.432 211.133 118.26 210.736 116.992C210.549 116.485 210.313 115.997 210.033 115.534C208.812 113.443 206.853 111.238 206.765 109.104C206.528 104.035 204.648 98.9752 204.639 93.8977C204.639 89.9886 207.275 85.772 208.689 81.7575C209.035 80.8162 209.296 79.8461 209.471 78.8586C209.573 78.8455 209.676 78.8455 209.778 78.8586C211.711 79.1046 214.083 83.4529 214.812 84.8936C216.044 87.4529 216.93 90.1648 217.447 92.9578C218.572 98.5711 219.643 101.25 221.839 106.521C222.621 108.366 222.885 113.312 223.421 115.244C223.759 116.195 223.888 117.207 223.8 118.212C223.712 119.217 223.409 120.191 222.911 121.068V121.068Z" fill="white"/>
<path d="M221.892 106.547L217.719 111.818C217.719 111.818 215.031 104.114 214.276 100.46C213.591 97.2271 211.403 87.977 209.972 84.0152C209.826 83.587 209.656 83.1676 209.462 82.759C209.255 82.3964 208.998 82.0651 208.698 81.7751C205.834 78.9026 197.146 74.4927 197.146 74.4927L198.754 73.175C202.092 74.6508 208.663 77.5673 209.664 78.4458C209.717 78.4458 209.752 78.639 209.787 78.8938C211.72 79.1397 214.091 83.4881 214.821 84.9287C216.053 87.4881 216.939 90.1999 217.456 92.9929C218.58 98.5974 219.652 101.277 221.892 106.547Z" fill="url(#paint5_linear)"/>
<path d="M197.313 60.7625C197.313 60.7625 196.303 68.1239 197.111 70.8471C197.919 73.5703 194.177 81.7312 188.634 82.267C183.091 82.8029 182.239 73.342 182.133 72.2351C182.028 71.1283 183.653 70.4167 182.845 67.6935C182.037 64.9703 196.461 57.4859 197.313 60.7625Z" fill="#F7AF81"/>
<path d="M182.845 67.6584C183.293 69.8916 183.215 72.1984 182.617 74.3961C184.084 75.5118 185.436 77.4268 187.009 77.2774C190.329 76.9788 195.073 69.5559 196.839 64.373C196.839 64.2764 196.9 64.1797 196.926 64.0831C197.085 62.2208 197.278 60.7625 197.278 60.7625C196.461 57.4859 182.046 64.9352 182.845 67.6584Z" fill="#F69771"/>
<path d="M179.208 44.6166C179.208 44.6166 177.952 59.0847 179.024 62.985C180.095 66.8854 183.416 70.2674 186.745 70.3026C190.075 70.3377 195.126 67.6057 197.401 62.6161C199.676 57.6265 200.915 45.3984 200.379 43.7206C199.843 42.0427 196.531 36.7457 187.632 37.466C181.51 37.9579 179.234 42.3941 179.208 44.6166Z" fill="#F7AF81"/>
<path d="M198.279 52.8565C198.279 52.8565 198.534 49.4745 200.853 50.388C203.172 51.3016 200.95 57.6441 199.887 58.2941C199.42 58.6481 198.863 58.8642 198.279 58.9178" fill="#F7AF81"/>
<path d="M146.943 109.446C146.943 109.446 152.099 108.05 150.298 100.258C148.497 92.4659 141.988 69.5119 141.988 69.5119L136.094 74.2468C136.094 74.2468 134.047 105.757 138.351 108.506C139.616 109.309 141.048 109.811 142.538 109.974C144.027 110.137 145.534 109.957 146.943 109.446V109.446Z" fill="#F7AF81"/>
<path d="M141.988 69.5382C141.988 69.5382 142.867 65.4622 142.445 64.3729C142.023 63.2837 137.719 55.4742 136.023 56.6074C134.328 57.7406 131.903 65.269 131.71 65.7785C131.517 66.288 136.094 74.2467 136.094 74.2467L141.988 69.5382Z" fill="#F7AF81"/>
<path d="M224.229 120.295L238.873 100.363L238.442 88.3459L214.109 113.399C213.46 114.094 212.982 114.929 212.71 115.84C212.439 116.751 212.382 117.712 212.545 118.648C212.707 119.584 213.085 120.47 213.647 121.236C214.21 122.002 214.942 122.627 215.787 123.062L217.596 123.247C218.864 123.381 220.144 123.178 221.308 122.66C222.473 122.142 223.48 121.326 224.229 120.295Z" fill="#F7AF81"/>
<path d="M236.896 101.145C238.264 100.863 239.605 100.46 240.902 99.9415C241.974 99.3705 245.382 87.2039 244.416 86.3957C243.449 85.5876 239.444 83.3036 238.328 84.0415C237.212 84.7794 231.195 90.5596 231.195 90.5596C231.195 90.5596 232.899 102.357 236.896 101.145Z" fill="#F7AF81"/>
<path d="M181.035 70.9526L182.52 69.8545C182.52 69.8545 184.277 78.7708 187.457 79.6668C187.457 79.6668 192.525 81.6521 196.883 70.0038L198.552 73.3683C198.552 73.3683 195.468 80.677 193.808 81.4501C192.148 82.2231 187.343 86.8789 183.029 80.677C180.983 77.6991 181.035 70.9526 181.035 70.9526Z" fill="#FCE61E"/>
<path d="M181.035 70.9526L182.52 69.8545C182.52 69.8545 184.277 78.7708 187.457 79.6668C187.457 79.6668 192.525 81.6521 196.883 70.0038L198.552 73.3683C198.552 73.3683 195.468 80.677 193.808 81.4501C192.148 82.2231 187.343 86.8789 183.029 80.677C180.983 77.6991 181.035 70.9526 181.035 70.9526Z" fill="url(#paint6_linear)"/>
<path d="M144.711 60.3848C145.536 59.6468 146.244 58.7879 146.811 57.8373C146.897 57.6918 146.922 57.5182 146.881 57.3541C146.828 57.2528 146.745 57.17 146.644 57.117C146.27 56.9052 145.848 56.7939 145.418 56.7939C144.989 56.7939 144.567 56.9052 144.193 57.117C143.444 57.5493 142.863 58.2206 142.542 59.0232C142.431 59.365 142.258 59.6836 142.032 59.9631C141.742 60.1765 141.405 60.3187 141.049 60.3782C140.694 60.4377 140.329 60.4129 139.985 60.3057C139.814 60.2482 139.629 60.2482 139.458 60.3057C139.186 60.4463 139.151 60.8152 139.177 61.1227C139.256 62.0802 140.468 65.3393 141.874 65.0933C142.454 64.9879 142.752 63.3364 142.99 62.8708C143.447 61.9673 144.026 61.1309 144.711 60.3848V60.3848Z" fill="#F7AF81"/>
<path d="M179.059 43.5009C179.059 43.5009 191.357 39.3195 200.748 49.3251L201.758 35.999C203.298 35.8493 204.809 35.4826 206.247 34.9097C209.067 33.8819 210.639 27.7327 207.011 26.7049C205.914 26.4246 204.769 26.3944 203.659 26.6164C202.549 26.8384 201.503 27.3069 200.598 27.9875C200.598 27.9875 203.682 21.5748 195.407 21.5748C195.407 21.5748 191.366 22.339 190.602 25.0359C190.602 25.0359 187.905 19.4577 183.293 21.5748C178.681 23.6919 179.252 26.1867 179.252 26.1867C179.252 26.1867 175.975 24.8426 175.018 26.5732C174.06 28.3037 173.639 31.0269 176.775 31.3871C181.773 31.9581 180.754 32.9859 180.754 32.9859L179.059 43.5009Z" fill="white"/>
<path d="M197.278 55.8871C198.512 54.1571 199.503 52.2653 200.221 50.265C200.496 50.7389 200.928 51.1022 201.442 51.2928C201.699 51.3809 201.978 51.3813 202.236 51.2939C202.493 51.2065 202.714 51.0362 202.865 50.8097C202.97 50.5864 203.004 50.3365 202.963 50.0932C202.923 49.8499 202.809 49.6248 202.636 49.4481C202.29 49.0962 201.835 48.8705 201.345 48.8068C201.207 48.7963 201.075 48.7443 200.967 48.6575C200.739 48.4115 200.967 47.9811 200.836 47.6999C200.728 47.5752 200.583 47.4888 200.423 47.454C199.623 47.1904 198.376 46.5755 197.603 46.3998C197.199 47.6912 198.086 49.5623 197.989 50.9766C197.871 52.6285 197.633 54.2696 197.278 55.8871V55.8871Z" fill="#7D3B3D"/>
<path d="M198.929 63.5033C198.898 63.881 198.819 64.253 198.692 64.6102C198.327 65.3262 197.778 65.9325 197.102 66.3671C197.009 66.4482 196.897 66.5054 196.777 66.534C196.656 66.5328 196.539 66.4876 196.449 66.4068C196.358 66.326 196.3 66.2151 196.285 66.0948C196.261 65.8508 196.303 65.6047 196.408 65.3832L198.112 60.5517C198.248 60.1952 198.354 59.8279 198.429 59.4537C198.442 59.2784 198.484 59.1064 198.552 58.9442C198.675 58.707 199.105 58.3644 199.43 58.5225C199.755 58.6806 199.483 59.5766 199.43 59.8753L198.929 63.5033Z" fill="#7D3B3D"/>
<path d="M212.87 94.7938L265.753 82.5482L256.925 81.9596L218.633 91.1043L212.87 94.7938Z" fill="#FCE61E"/>
<path d="M212.87 94.7938L265.753 82.5482L256.925 81.9596L218.633 91.1043L212.87 94.7938Z" fill="url(#paint7_linear)"/>
<path d="M218.668 91.1131C218.668 91.1131 214.469 72.3054 230.967 68.7213C251.355 64.3291 256.89 81.9684 256.89 81.9684L218.668 91.1131Z" fill="#FCE61E"/>
<path d="M256.925 81.9684L218.668 91.113C218.668 91.113 214.469 72.3054 230.967 68.7213C231.942 68.5105 232.882 68.3524 233.786 68.2382C250.477 66.1123 256.02 79.5438 256.793 81.6785L256.925 81.9684Z" fill="url(#paint8_linear)"/>
<path d="M256.819 81.6785L225.951 89.0575C225.951 89.0575 222.595 73.9393 233.857 68.2382C250.468 66.1123 256.046 79.5175 256.819 81.6785Z" fill="url(#paint9_linear)"/>
<path d="M230.36 68.9673C231.35 68.9673 232.152 68.1649 232.152 67.1752C232.152 66.1855 231.35 65.3832 230.36 65.3832C229.371 65.3832 228.568 66.1855 228.568 67.1752C228.568 68.1649 229.371 68.9673 230.36 68.9673Z" fill="#FCE61E"/>
<path d="M153.707 273.023C152.178 273.603 150.562 274.499 150.562 276.458C150.571 277.233 150.837 277.984 151.317 278.592C153.188 281.105 156.65 281.228 159.689 281.105C165.362 280.815 171.001 280.051 176.546 278.821C176.925 278.766 177.285 278.618 177.592 278.39C177.885 278.062 178.069 277.651 178.119 277.213C178.511 275.302 178.57 273.338 178.295 271.407C178.27 271.229 178.199 271.06 178.088 270.919C177.977 270.777 177.831 270.667 177.664 270.6C177.498 270.533 177.316 270.512 177.138 270.538C176.96 270.564 176.793 270.636 176.652 270.748C175.55 271.653 174.149 272.11 172.725 272.03C169.343 271.811 168.052 268.85 164.599 269.86C161.007 270.906 157.177 271.688 153.707 273.023Z" fill="#FCE61E"/>
<path d="M190.162 271.969C188.634 272.549 187.018 273.445 187.009 275.395C187.025 276.173 187.293 276.925 187.773 277.538C189.635 280.051 193.105 280.174 196.145 280.042C201.818 279.752 207.456 278.988 213.002 277.758C213.382 277.707 213.742 277.559 214.048 277.327C214.344 277.001 214.529 276.589 214.575 276.15C214.968 274.218 215.025 272.233 214.742 270.282C214.718 270.11 214.649 269.947 214.541 269.81C214.434 269.673 214.292 269.567 214.131 269.503C213.969 269.439 213.793 269.418 213.621 269.444C213.449 269.47 213.287 269.541 213.152 269.65C212.052 270.598 210.631 271.088 209.181 271.02C205.799 270.792 204.499 267.84 201.055 268.841C197.462 269.852 193.667 270.634 190.162 271.969Z" fill="#FCE61E"/>
<path d="M153.707 273.023C152.178 273.603 150.562 274.499 150.562 276.458C150.571 277.233 150.837 277.984 151.317 278.592C153.188 281.105 156.65 281.228 159.689 281.105C165.362 280.815 171.001 280.051 176.546 278.821C176.925 278.766 177.285 278.618 177.592 278.39C177.885 278.062 178.069 277.651 178.119 277.213C178.511 275.302 178.57 273.338 178.295 271.407C178.27 271.229 178.199 271.06 178.088 270.919C177.977 270.777 177.831 270.667 177.664 270.6C177.498 270.533 177.316 270.512 177.138 270.538C176.96 270.564 176.793 270.636 176.652 270.748C175.55 271.653 174.149 272.11 172.725 272.03C169.343 271.811 168.052 268.85 164.599 269.86C161.007 270.906 157.177 271.688 153.707 273.023Z" fill="url(#paint10_linear)"/>
<path d="M190.162 271.969C188.634 272.549 187.018 273.445 187.009 275.395C187.025 276.173 187.293 276.925 187.773 277.538C189.635 280.051 193.105 280.174 196.145 280.042C201.818 279.752 207.456 278.988 213.002 277.758C213.382 277.707 213.742 277.559 214.048 277.327C214.344 277.001 214.529 276.589 214.575 276.15C214.968 274.218 215.025 272.233 214.742 270.282C214.718 270.11 214.649 269.947 214.541 269.81C214.434 269.673 214.292 269.567 214.131 269.503C213.969 269.439 213.793 269.418 213.621 269.444C213.449 269.47 213.287 269.541 213.152 269.65C212.052 270.598 210.631 271.088 209.181 271.02C205.799 270.792 204.499 267.84 201.055 268.841C197.462 269.852 193.667 270.634 190.162 271.969Z" fill="url(#paint11_linear)"/>
<path d="M183.486 93.0808C184.088 93.0808 184.575 92.5931 184.575 91.9915C184.575 91.3899 184.088 90.9022 183.486 90.9022C182.885 90.9022 182.397 91.3899 182.397 91.9915C182.397 92.5931 182.885 93.0808 183.486 93.0808Z" fill="#FCE61E"/>
<path d="M181.369 107.382C181.971 107.382 182.458 106.894 182.458 106.293C182.458 105.691 181.971 105.203 181.369 105.203C180.768 105.203 180.28 105.691 180.28 106.293C180.28 106.894 180.768 107.382 181.369 107.382Z" fill="#FCE61E"/>
<path d="M180.983 124.565C181.584 124.565 182.072 124.077 182.072 123.475C182.072 122.874 181.584 122.386 180.983 122.386C180.381 122.386 179.893 122.874 179.893 123.475C179.893 124.077 180.381 124.565 180.983 124.565Z" fill="#FCE61E"/>
<path d="M181.624 138.734C182.225 138.734 182.713 138.246 182.713 137.645C182.713 137.043 182.225 136.555 181.624 136.555C181.022 136.555 180.535 137.043 180.535 137.645C180.535 138.246 181.022 138.734 181.624 138.734Z" fill="#FCE61E"/>
<path d="M181.879 159.896C182.48 159.896 182.968 159.408 182.968 158.807C182.968 158.205 182.48 157.717 181.879 157.717C181.277 157.717 180.789 158.205 180.789 158.807C180.789 159.408 181.277 159.896 181.879 159.896Z" fill="#FCE61E"/>
<path d="M206.792 140.86C208.088 140.719 209.4 140.897 210.613 141.378C211.781 141.967 212.651 143.363 212.176 144.576C211.845 145.19 211.425 145.753 210.929 146.245C209.734 147.8 209.69 149.917 209.708 151.884L210.13 209.537C210.13 211.505 209.936 213.868 208.197 214.808C207.412 215.149 206.556 215.297 205.702 215.238C190.915 215.426 176.131 215.581 161.349 215.704C159.812 215.704 157.993 215.581 157.212 214.254C156.897 213.601 156.749 212.88 156.781 212.155C155.996 189.292 158.154 166.423 163.203 144.11C163.318 143.239 163.681 142.419 164.248 141.747C165.127 140.869 170.028 141.932 171.346 141.905C175.343 141.835 179.331 141.677 183.319 141.563L206.792 140.86Z" fill="#FCE61E"/>
<path d="M206.792 140.86C208.088 140.719 209.4 140.897 210.613 141.378C211.781 141.967 212.651 143.363 212.176 144.576C211.845 145.19 211.425 145.753 210.929 146.245C209.734 147.8 209.69 149.917 209.708 151.884L210.13 209.537C210.13 211.505 209.936 213.868 208.197 214.808C207.412 215.149 206.556 215.297 205.702 215.238C190.915 215.426 176.131 215.581 161.349 215.704C159.812 215.704 157.993 215.581 157.212 214.254C156.897 213.601 156.749 212.88 156.781 212.155C155.996 189.292 158.154 166.423 163.203 144.11C163.318 143.239 163.681 142.419 164.248 141.747C165.127 140.869 170.028 141.932 171.346 141.905C175.343 141.835 179.331 141.677 183.319 141.563L206.792 140.86Z" fill="url(#paint12_linear)"/>
</g>
<defs>
<linearGradient id="paint0_linear" x1="235.71" y1="33.8028" x2="239.171" y2="87.6607" gradientUnits="userSpaceOnUse">
<stop offset="0.02" stop-color="white" stop-opacity="0"/>
<stop offset="0.39" stop-color="white" stop-opacity="0.39"/>
<stop offset="1" stop-color="white"/>
</linearGradient>
<linearGradient id="paint1_linear" x1="191.058" y1="189.061" x2="181.835" y2="312.711" gradientUnits="userSpaceOnUse">
<stop offset="0.01"/>
<stop offset="0.83" stop-opacity="0.07"/>
<stop offset="1" stop-opacity="0"/>
</linearGradient>
<linearGradient id="paint2_linear" x1="10454.2" y1="17111.7" x2="15949.9" y2="47363.3" gradientUnits="userSpaceOnUse">
<stop offset="0.01"/>
<stop offset="0.83" stop-opacity="0.07"/>
<stop offset="1" stop-opacity="0"/>
</linearGradient>
<linearGradient id="paint3_linear" x1="5400.37" y1="3898.97" x2="5041.83" y2="2633.18" gradientUnits="userSpaceOnUse">
<stop offset="0.01"/>
<stop offset="0.83" stop-opacity="0.07"/>
<stop offset="1" stop-opacity="0"/>
</linearGradient>
<linearGradient id="paint4_linear" x1="4266.04" y1="13295.6" x2="2864.11" y2="13283.3" gradientUnits="userSpaceOnUse">
<stop offset="0.01"/>
<stop offset="0.83" stop-opacity="0.07"/>
<stop offset="1" stop-opacity="0"/>
</linearGradient>
<linearGradient id="paint5_linear" x1="6747.41" y1="3255.82" x2="5420.91" y2="3862.63" gradientUnits="userSpaceOnUse">
<stop offset="0.01"/>
<stop offset="0.83" stop-opacity="0.07"/>
<stop offset="1" stop-opacity="0"/>
</linearGradient>
<linearGradient id="paint6_linear" x1="3836.72" y1="934.563" x2="3822.06" y2="1664.35" gradientUnits="userSpaceOnUse">
<stop offset="0.01"/>
<stop offset="0.83" stop-opacity="0.07"/>
<stop offset="1" stop-opacity="0"/>
</linearGradient>
<linearGradient id="paint7_linear" x1="10759.8" y1="1161.44" x2="10787" y2="1493.14" gradientUnits="userSpaceOnUse">
<stop offset="0.01"/>
<stop offset="0.83" stop-opacity="0.07"/>
<stop offset="1" stop-opacity="0"/>
</linearGradient>
<linearGradient id="paint8_linear" x1="10105.5" y1="1742.92" x2="10231.5" y2="2545.48" gradientUnits="userSpaceOnUse">
<stop offset="0.02" stop-color="white" stop-opacity="0"/>
<stop offset="0.39" stop-color="white" stop-opacity="0.39"/>
<stop offset="1" stop-color="white"/>
</linearGradient>
<linearGradient id="paint9_linear" x1="8359.24" y1="1581.71" x2="8483.82" y2="2286.99" gradientUnits="userSpaceOnUse">
<stop offset="0.02" stop-color="white" stop-opacity="0"/>
<stop offset="0.39" stop-color="white" stop-opacity="0.39"/>
<stop offset="1" stop-color="white"/>
</linearGradient>
<linearGradient id="paint10_linear" x1="5052.55" y1="3493.31" x2="5098.55" y2="4546.02" gradientUnits="userSpaceOnUse">
<stop offset="0.01"/>
<stop offset="0.83" stop-opacity="0.07"/>
<stop offset="1" stop-opacity="0"/>
</linearGradient>
<linearGradient id="paint11_linear" x1="6245.14" y1="3453.25" x2="6290.74" y2="4501.99" gradientUnits="userSpaceOnUse">
<stop offset="0.01"/>
<stop offset="0.83" stop-opacity="0.07"/>
<stop offset="1" stop-opacity="0"/>
</linearGradient>
<linearGradient id="paint12_linear" x1="11420.5" y1="20490.9" x2="11377.1" y2="9732.18" gradientUnits="userSpaceOnUse">
<stop offset="0.01"/>
<stop offset="0.83" stop-opacity="0.07"/>
<stop offset="1" stop-opacity="0"/>
</linearGradient>
<clipPath id="clip0">
<rect width="406" height="306" fill="white" transform="translate(-16)"/>
</clipPath>
</defs>
</svg>
